<?xml version="1.0" encoding="UTF-8"?>
<!DOCTYPE svg PUBLIC "-//W3C//DTD SVG 1.1//EN" "http://www.w3.org/Graphics/SVG/1.1/DTD/svg11.dtd">
<!-- Creator: CorelDRAW 2020 (64-Bit) -->
<svg xmlns="http://www.w3.org/2000/svg" xml:space="preserve" width="68.3997mm" height="53.6626mm" version="1.1" style="shape-rendering:geometricPrecision; text-rendering:geometricPrecision; image-rendering:optimizeQuality; fill-rule:evenodd; clip-rule:evenodd"
viewBox="0 0 1828.65 1434.66"
 xmlns:xlink="http://www.w3.org/1999/xlink"
 xmlns:xodm="http://www.corel.com/coreldraw/odm/2003">
 <defs>
  <style type="text/css">
   <![CDATA[
    .fil0 {fill:#C96C53}
    .fil1 {fill:#C96C53;fill-rule:nonzero}
   ]]>
  </style>
 </defs>
 <g id="Layer_x0020_1">
  <metadata id="CorelCorpID_0Corel-Layer"/>
  <path class="fil0" d="M606.05 955.74c0,36.75 -4.59,66.62 -17.23,90.74 -11.49,24.12 -33.31,44.79 -66.62,60.87 -33.31,17.23 -70.06,25.27 -110.26,25.27 -80.4,0 -144.34,-29.86 -197.17,-88.44 -53.98,-59.73 -81.54,-159.65 -81.54,-300.92 0,-142.42 28.71,-241.19 83.84,-296.32 56.28,-56.28 117.92,-83.84 193.73,-83.84 72.36,0 133.23,24.12 183.77,72.36 14.93,12.63 27.56,28.71 39.05,44.79l26.42 -27.56 0 -3.45c-67.76,-76.95 -156.2,-114.85 -261.86,-114.85 -122.89,0 -217.85,42.5 -290.2,128.63 -72.36,86.14 -107.96,186.06 -107.96,299.77 0,116 37.9,211.33 112.56,285.99 75.8,74.65 168.46,112.55 282.16,112.55 101.39,0 191.52,-27.59 267.61,-94.18 37.9,-31.01 58.58,-78.1 58.58,-127.49l0 0 0 -108.55 0.25 0 0 -22.61 -218.65 0 0 22.61 103.55 0 0 124.62z"/>
  <path class="fil0" d="M1673.42 1167.77l155.23 0c-152.77,-152.77 -361.59,-361.55 -514.65,-516.9 117.92,-106.93 237.41,-216.98 354.68,-324.74l-37.99 0 -422.11 371.16c155.82,156.85 313.55,311.59 464.83,470.47z"/>
  <path class="fil0" d="M904.52 109.71c-0.2,-0.3 -0.4,-0.45 -0.6,-0.51l0 -0 -0.03 -0.01 -0.01 0 -0.03 -0.01 -0.01 0 -0.02 -0.01 -0.01 0 -0.02 -0.01 -0.02 0 -0.02 -0 -0.02 -0 -0.02 0 -0.02 0 -0.02 0 -0.02 0 -0.02 0 -0.02 0 -0.02 0 -0.02 0 -0.02 0 -0.02 0 -0.02 0.01 -0.01 0 -0.02 0.01 -0.01 0 -0.03 0.01 -0.01 0 -0.03 0.01 0 0c-0.2,0.06 -0.4,0.21 -0.6,0.51 -2.68,14.25 -13.95,26.13 -13.95,26.13 0,0 -48.69,60.93 -69.06,85.83 -2.61,3.18 -5.22,6.45 -7.93,9.54 -2.45,2.78 -3.82,4.71 -4.85,6.62 -2.84,5.24 -1.69,10.31 -1.25,16.12 3.77,49.68 4.31,62.52 19.9,108.78 4.65,13.81 9.68,27.97 13.8,38 3.09,7.52 7.08,15.74 12.81,21.62 4.87,4.99 14.44,5.54 20.03,1.32 3.84,-2.91 6.62,-7.68 8.04,-12.16 0.78,-2.46 1.16,-5.08 1.32,-7.66 0.51,-8.3 0.02,-13.46 -3.18,-20.96 -0.67,-1.57 -1.41,-3.22 -2.15,-4.78 -0.87,-1.86 -1.74,-3.61 -2.47,-4.99l-0 -0 -0.01 -0.01 -0.01 -0.02 0 -0c-0.59,-1.11 -1.1,-1.98 -1.45,-2.48l0.04 -0.02c-0.94,-1.49 -2.39,-3.55 -4.47,-5.92l-0.01 0 -0.1 -0.13c-0.79,-0.91 -1.68,-1.85 -2.66,-2.83 -1.3,-1.14 -2.69,-2.05 -3.98,-2.57 -3.57,-0.87 -5.16,3.14 -5.16,3.14 -0.17,5.1 3.85,10.31 6.36,13.05 0.46,0.47 0.91,0.93 1.34,1.38l0.04 0.04 0.56 0.53 -0.24 -0.18c1.56,1.71 2.84,3.48 3.55,5.76 0.7,2.25 1.19,5.11 0.22,8.72 -0.67,2.51 -2.01,4.76 -3.82,6.54 -2.65,2.63 -6.31,4.26 -10.34,4.26 -1.85,0 -3.4,-1.37 -3.5,-3.09 -0.25,-4.2 5.51,-3.52 8.53,-6.51 1.28,-1.26 2.07,-3.02 2.07,-4.96 0,-4.63 -10.3,-12.37 -14.22,-15.89 -12.75,-11.44 -15.74,-23.98 -7.78,-41.58 2.32,-9.32 1.95,-18.02 1.95,-27.21 0,-16.92 11.2,-31.41 27.09,-37.44 -2.61,-5.34 -4.08,-11.34 -4.08,-17.68l0.02 -1.13 -0 -0.43c0,-14.51 8.36,-27.14 20.68,-33.64 5.79,-3.23 12.46,-5.07 19.56,-5.07 22.24,0 40.26,18.02 40.26,40.26 0,6.45 -1.52,12.54 -4.21,17.94 15.53,6.18 26.41,20.5 26.41,37.18 0,9.2 -0.37,17.9 1.95,27.21 7.96,17.6 4.97,30.14 -7.78,41.58 -3.92,3.52 -14.22,11.26 -14.22,15.89 0,1.94 0.79,3.7 2.07,4.96 3.02,3 8.79,2.32 8.53,6.51 -0.1,1.72 -1.65,3.09 -3.5,3.09 -4.03,0 -7.69,-1.63 -10.34,-4.26 -1.8,-1.79 -3.14,-4.04 -3.82,-6.54 -0.97,-3.61 -0.48,-6.47 0.22,-8.72 0.71,-2.28 1.99,-4.04 3.55,-5.76l-0.24 0.18 0.56 -0.53 0.04 -0.04c0.43,-0.46 0.88,-0.92 1.34,-1.38 2.51,-2.74 6.53,-7.95 6.36,-13.05 0,0 -1.59,-4.02 -5.16,-3.14 -1.29,0.51 -2.68,1.42 -3.98,2.57 -0.98,0.98 -1.87,1.92 -2.66,2.83l-0.1 0.13 -0.01 -0c-2.08,2.38 -3.53,4.44 -4.47,5.92l0.04 0.02c-0.35,0.49 -0.86,1.36 -1.45,2.48l0 0 -0.01 0.02 -0.01 0.01 -0 0c-0.73,1.38 -1.6,3.13 -2.47,4.99 -0.73,1.56 -1.47,3.21 -2.15,4.78 -3.2,7.5 -3.69,12.66 -3.18,20.96 0.16,2.57 0.55,5.2 1.32,7.66 1.42,4.48 4.2,9.25 8.04,12.16 5.58,4.22 15.16,3.68 20.03,-1.32 5.73,-5.88 9.73,-14.11 12.81,-21.62 4.12,-10.03 9.15,-24.18 13.8,-38 15.58,-46.26 16.13,-59.1 19.9,-108.78 0.44,-5.81 1.59,-10.88 -1.25,-16.12 -1.03,-1.91 -2.41,-3.83 -4.85,-6.62 -2.72,-3.09 -5.33,-6.35 -7.93,-9.54 -20.37,-24.91 -69.06,-85.83 -69.06,-85.83 0,0 -11.27,-11.88 -13.95,-26.13zm68.09 486.13l0.06 0c-3.26,20.24 -4.08,50.08 12.77,90.17 7.83,18.61 14.85,34.88 19.59,53.41 10.97,6.76 21.56,9.86 58.22,18.73 60.74,14.7 117.04,49.14 144.7,68.87 23.95,17.08 24.12,35.77 22.73,48 -2.19,19.49 -17.51,26.03 -33.18,35.58 -16.83,10.25 -86.86,29.21 -88.79,29.6 -1.94,0.39 -97.11,16.64 -124.97,23.99 -13.56,3.58 -30.25,12.42 -39.58,26.8 -18.71,28.83 -23.87,73.56 -27.17,97.98 -3.09,22.83 6.96,48.36 11.99,74.67 5.03,26.31 3.09,97.11 3.09,97.11 0,0 2.32,78.93 5.41,95.76 1.02,5.54 2.21,9.76 3.35,13.07 3.87,11.17 4.83,18.14 3.66,23.45 -1.69,7.64 -8.76,11.39 -25.97,15.33 -22.56,5.16 -33.88,20.53 -51.85,25.59 -8.73,2.46 -22.82,-1.75 -35.58,-6.48 -6.76,-2.51 -3.1,-7.54 -3.1,-7.54 23.41,-13.6 52.21,-29.95 67.27,-49.44 5.98,-7.74 6.69,-16.36 6.97,-26.18 0.56,-19.76 -5.75,-42.52 -10.14,-59.65 -4.68,-18.25 -10.2,-38.24 -15.94,-56.59 -15.47,-49.52 -21.67,-94.79 -21.67,-113.36 0,-18.57 -4.26,-43.33 -4.26,-43.33 0,0 -15.47,-50.3 -41.01,-174.11 -25.53,-123.8 -9.67,-157.85 12.77,-211.24 22.44,-53.39 13.54,-88.6 9.28,-107.17 -4.26,-18.57 -33.28,-110.27 -33.28,-110.27 0,0 -12.6,-46.72 -21.56,-80.45 -6.19,-23.32 -9.1,-42.7 -10.94,-59.95 -1.79,-16.87 -2.59,-31.66 -2.73,-51.21 -0.07,-10.84 0.72,-28.15 0.39,-40.71 -0.37,-14.01 1.78,-14.11 8.77,-22.46 12.76,-15.29 26.33,-29.19 40.37,-43.31 0,0 49.91,-43.91 54.16,-49.13 4.25,-5.23 11.02,-12 14.89,-31.34 3.87,-19.34 9.09,-49.91 12.38,-66.55 2.7,-13.64 7.48,-20.65 9.11,-22.73l0 -0.07 0.16 -0.2 0 -0 0.01 -0.01 0.01 -0.01 0.01 -0.02 0.02 -0.02 0.02 -0.02 0.03 -0.04 0.03 -0.03 0.22 -0.26 0 0.06 0.01 -0 0.05 -0.06 0 0.03c0.07,-0.04 0.15,-0.06 0.22,-0.06l0.03 -0 0.01 0 0.03 0 0.01 0 0.03 0c0.07,0.01 0.14,0.02 0.22,0.06l0 -0.03 0.05 0.06 0.01 0 0 -0.06 0.22 0.26 0.03 0.03 0.03 0.04 0.02 0.02 0.02 0.02 0.01 0.02 0.01 0.01 0.01 0.01 0 0 0.16 0.2 0 0.07c1.63,2.08 6.41,9.09 9.11,22.73 3.29,16.64 8.51,47.2 12.38,66.55 3.87,19.35 10.64,26.12 14.89,31.34 4.26,5.22 54.16,49.13 54.16,49.13 14.04,14.13 27.6,28.02 40.37,43.31 6.99,8.36 9.14,8.45 8.77,22.46 -0.33,12.56 0.46,29.87 0.39,40.71 -0.14,19.55 -0.94,34.34 -2.73,51.21 -1.83,17.25 -4.75,36.63 -10.94,59.95 -8.95,33.73 -21.56,80.45 -21.56,80.45 0,0 -29.02,91.7 -33.28,110.27 -1.06,4.63 -2.41,10.29 -3.49,17zm-57.84 215.13c0.06,5.84 -0.34,11.61 -0.58,17.45 -1.13,27.34 -2.58,80.03 -3.3,107.36 31.09,1.33 52.01,-7.84 66.87,-14.15 15.47,-6.58 115.68,-47.2 115.68,-47.2 0,0 -15.86,-2.71 -72.35,-14.7 -56.49,-11.99 -106.31,-48.75 -106.31,-48.75z"/>
  <path class="fil1" d="M92.73 1428.28c-3.36,0 -5.93,-0.93 -7.72,-2.79 -1.78,-1.86 -2.68,-4.49 -2.68,-7.89l0 -46.75 4.41 12.23 -37.8 -52.32c-1.47,-1.96 -2.13,-4.03 -1.97,-6.19 0.16,-2.17 1.05,-4.03 2.68,-5.57 1.63,-1.55 3.91,-2.32 6.85,-2.32 2.21,0 4.2,0.54 5.98,1.63 1.79,1.08 3.52,2.71 5.2,4.87l27.56 38.7 -4.41 0 27.88 -38.7c1.68,-2.27 3.33,-3.92 4.96,-4.95 1.63,-1.03 3.65,-1.55 6.06,-1.55 2.83,0 5.04,0.72 6.61,2.17 1.57,1.45 2.39,3.22 2.44,5.34 0.06,2.11 -0.76,4.36 -2.44,6.73l-37.48 52.17 4.25 -12.23 0 46.75c0,7.12 -3.46,10.68 -10.4,10.68z"/>
  <path class="fil1" d="M273.97 1428.59c-10.71,0 -20.11,-2.32 -28.19,-6.97 -8.09,-4.64 -14.36,-11.17 -18.82,-19.58 -4.46,-8.41 -6.69,-18.29 -6.69,-29.64 0,-8.57 1.29,-16.28 3.86,-23.14 2.57,-6.86 6.19,-12.74 10.87,-17.65 4.67,-4.9 10.32,-8.67 16.93,-11.3 6.61,-2.63 13.96,-3.95 22.05,-3.95 10.81,0 20.24,2.3 28.27,6.89 8.03,4.59 14.25,11.07 18.66,19.43 4.41,8.36 6.62,18.21 6.62,29.57 0,8.57 -1.26,16.31 -3.78,23.22 -2.52,6.91 -6.12,12.85 -10.79,17.8 -4.67,4.95 -10.31,8.74 -16.93,11.38 -6.62,2.63 -13.97,3.95 -22.05,3.95zm0 -17.49c6.72,0 12.44,-1.55 17.16,-4.64 4.73,-3.1 8.35,-7.53 10.87,-13.31 2.52,-5.78 3.78,-12.69 3.78,-20.74 0,-12.18 -2.78,-21.65 -8.35,-28.41 -5.57,-6.76 -13.39,-10.14 -23.47,-10.14 -6.61,0 -12.31,1.52 -17.09,4.57 -4.78,3.04 -8.43,7.43 -10.95,13.16 -2.52,5.73 -3.78,12.67 -3.78,20.82 0,12.07 2.78,21.54 8.35,28.41 5.56,6.86 13.38,10.29 23.47,10.29z"/>
  <path class="fil1" d="M478.68 1428.59c-12.39,0 -22.81,-2.27 -31.26,-6.81 -8.45,-4.54 -14.91,-10.99 -19.37,-19.35 -4.46,-8.36 -6.69,-18.27 -6.69,-29.72 0,-8.67 1.31,-16.46 3.94,-23.37 2.63,-6.92 6.38,-12.82 11.26,-17.73 4.88,-4.9 10.87,-8.67 17.96,-11.3 7.08,-2.63 15.14,-3.95 24.17,-3.95 5.77,0 11.6,0.67 17.48,2.01 5.88,1.34 11.5,3.67 16.85,6.97 1.78,1.14 2.99,2.55 3.62,4.26 0.63,1.7 0.74,3.43 0.32,5.19 -0.42,1.75 -1.24,3.28 -2.44,4.57 -1.21,1.29 -2.71,2.11 -4.49,2.48 -1.78,0.36 -3.73,-0.03 -5.83,-1.16 -3.99,-2.27 -8.01,-3.9 -12.05,-4.88 -4.04,-0.98 -8.53,-1.47 -13.46,-1.47 -7.77,0 -14.31,1.5 -19.61,4.49 -5.3,2.99 -9.26,7.33 -11.89,13 -2.63,5.68 -3.94,12.64 -3.94,20.9 0,12.49 3.07,22.01 9.21,28.56 6.14,6.56 15.2,9.83 27.17,9.83 4.1,0 8.27,-0.41 12.52,-1.24 4.25,-0.83 8.43,-1.96 12.52,-3.41l-4.09 8.98 0 -32.51 -16.7 0c-2.73,0 -4.83,-0.67 -6.3,-2.01 -1.47,-1.34 -2.2,-3.2 -2.2,-5.57 0,-2.48 0.73,-4.33 2.2,-5.57 1.47,-1.24 3.57,-1.86 6.3,-1.86l25.67 0c2.73,0 4.83,0.7 6.3,2.09 1.47,1.4 2.21,3.43 2.21,6.12l0 37.46c0,2.27 -0.47,4.21 -1.42,5.8 -0.95,1.6 -2.41,2.76 -4.41,3.48 -4.72,1.65 -10.05,3.02 -15.98,4.1 -5.93,1.08 -11.78,1.63 -17.56,1.63z"/>
  <path class="fil1" d="M619.61 1428.28c-2.63,0 -4.72,-0.59 -6.3,-1.78 -1.57,-1.19 -2.52,-2.76 -2.84,-4.72 -0.31,-1.96 0.05,-4.13 1.1,-6.5l41.42 -89.94c1.47,-3.1 3.2,-5.31 5.19,-6.66 2,-1.34 4.31,-2.01 6.93,-2.01 2.52,0 4.77,0.67 6.77,2.01 1.99,1.34 3.67,3.56 5.04,6.66l41.57 89.94c1.16,2.37 1.58,4.57 1.26,6.58 -0.32,2.01 -1.24,3.59 -2.76,4.72 -1.52,1.14 -3.54,1.7 -6.06,1.7 -2.94,0 -5.25,-0.72 -6.93,-2.17 -1.68,-1.45 -3.2,-3.67 -4.57,-6.66l-10.08 -23.06 8.66 5.73 -66.3 0 8.66 -5.73 -9.92 23.06c-1.36,3.1 -2.81,5.34 -4.33,6.73 -1.52,1.39 -3.7,2.09 -6.53,2.09zm45.2 -88.23l-21.73 50.93 -4.25 -5.26 52.13 0 -3.94 5.26 -21.89 -50.93 -0.32 0z"/>
  <path class="fil1" d="M1055.7 1428.59c-7.65,0 -14.31,-1.24 -19.98,-3.72 -5.67,-2.48 -10.03,-5.93 -13.09,-10.37 -3.06,-4.44 -4.59,-9.6 -4.59,-15.48 0,-3.51 0.51,-6.79 1.53,-9.83 1.02,-3.05 2.45,-5.88 4.29,-8.51 1.84,-2.63 4.11,-5.08 6.81,-7.35 2.71,-2.27 5.79,-4.44 9.26,-6.5l5.21 -3.1 -2.76 4.34c-4.49,-4.54 -7.73,-8.85 -9.72,-12.93 -1.99,-4.08 -2.99,-8.28 -2.99,-12.62 0,-5.16 1.22,-9.73 3.68,-13.7 2.45,-3.97 5.94,-7.04 10.49,-9.21 4.54,-2.17 9.87,-3.25 16,-3.25 8.47,0 15.16,2.17 20.06,6.5 4.9,4.33 7.35,10.16 7.35,17.49 0,3.92 -0.77,7.64 -2.3,11.15 -1.53,3.51 -3.95,6.86 -7.27,10.06 -3.32,3.2 -7.78,6.35 -13.39,9.44l0.15 -4.8 25.72 27.55 -4.14 0c1.23,-2.17 2.35,-4.59 3.37,-7.27 1.02,-2.68 1.91,-5.57 2.68,-8.67 0.76,-3.1 1.35,-6.34 1.76,-9.75 0.41,-2.58 1.3,-4.54 2.68,-5.88 1.38,-1.34 3.34,-2.01 5.9,-2.01 2.76,0 4.82,0.77 6.2,2.32 1.38,1.55 1.91,3.77 1.61,6.66 -0.61,4.75 -1.51,9.31 -2.68,13.7 -1.17,4.39 -2.63,8.44 -4.37,12.15 -1.74,3.72 -3.67,7.17 -5.82,10.37l-0.16 -4.8 14.39 14.55c2.04,2.06 3.06,4.1 3.06,6.11 0,2.01 -0.77,3.69 -2.3,5.03 -1.53,1.34 -3.62,2.01 -6.27,2.01 -2.35,0 -4.26,-0.46 -5.75,-1.39 -1.48,-0.93 -3.09,-2.27 -4.82,-4.02l-9.19 -9.75 4.44 0c-4.49,4.85 -9.77,8.64 -15.84,11.38 -6.07,2.73 -12.48,4.1 -19.22,4.1zm1.22 -15.79c4.8,0 9.06,-0.93 12.78,-2.79 3.73,-1.86 7.17,-4.64 10.33,-8.36l-0.46 5.11 -31.39 -32.82 8.27 0.77 -4.44 2.63c-3.37,1.96 -6.12,3.95 -8.26,5.96 -2.14,2.01 -3.68,4.15 -4.59,6.42 -0.92,2.27 -1.38,4.85 -1.38,7.74 0,4.75 1.66,8.49 4.98,11.22 3.32,2.73 8.04,4.1 14.16,4.1zm2.91 -82.35c-3.57,0 -6.45,1.03 -8.65,3.1 -2.19,2.06 -3.29,4.9 -3.29,8.51 0,1.96 0.3,3.77 0.92,5.42 0.61,1.65 1.66,3.48 3.14,5.49 1.48,2.01 3.55,4.41 6.2,7.2l-4.44 -0.31c4.29,-2.37 7.66,-4.52 10.11,-6.42 2.45,-1.91 4.23,-3.84 5.35,-5.8 1.13,-1.96 1.68,-4.13 1.68,-6.5 0,-3.51 -0.99,-6.17 -2.98,-7.97 -1.99,-1.8 -4.67,-2.71 -8.04,-2.71z"/>
  <path class="fil1" d="M1218.49 1428.28c-2.9,0 -5.12,-0.85 -6.67,-2.55 -1.55,-1.7 -2.32,-4.05 -2.32,-7.04l0 -92.41c0,-3.1 0.83,-5.47 2.48,-7.12 1.65,-1.65 3.92,-2.48 6.82,-2.48 2.6,0 4.65,0.52 6.15,1.55 1.5,1.03 2.85,2.73 4.05,5.11l36.74 69.97 -4.8 0 36.59 -69.97c1.2,-2.37 2.53,-4.07 3.98,-5.11 1.45,-1.03 3.47,-1.55 6.07,-1.55 2.9,0 5.12,0.82 6.67,2.48 1.55,1.65 2.33,4.02 2.33,7.12l0 92.41c0,2.99 -0.75,5.34 -2.25,7.04 -1.5,1.7 -3.75,2.55 -6.75,2.55 -2.9,0 -5.13,-0.85 -6.68,-2.55 -1.55,-1.7 -2.33,-4.05 -2.33,-7.04l0 -70.12 3.3 0 -30.89 57.89c-1,1.86 -2.07,3.2 -3.22,4.03 -1.15,0.82 -2.68,1.24 -4.57,1.24 -2,0 -3.62,-0.44 -4.87,-1.32 -1.25,-0.88 -2.32,-2.19 -3.22,-3.95l-31.19 -58.05 3.6 0 0 70.28c0,2.99 -0.75,5.34 -2.25,7.04 -1.5,1.7 -3.75,2.55 -6.75,2.55z"/>
  <path class="fil1" d="M1598.17 1428.28c-3.2,0 -5.65,-0.93 -7.35,-2.79 -1.7,-1.86 -2.55,-4.44 -2.55,-7.74l0 -89.47c0,-3.41 0.88,-5.99 2.63,-7.74 1.75,-1.75 4.22,-2.63 7.42,-2.63l36.29 0c11.6,0 20.54,2.89 26.84,8.67 6.3,5.78 9.45,13.83 9.45,24.15 0,6.71 -1.42,12.49 -4.27,17.34 -2.85,4.85 -6.98,8.59 -12.37,11.22 -5.4,2.63 -11.95,3.95 -19.64,3.95l1.35 -2.48 5.1 0c4.1,0 7.67,1.03 10.72,3.1 3.05,2.06 5.72,5.31 8.02,9.75l10.95 20.9c1.3,2.27 1.87,4.46 1.72,6.58 -0.15,2.11 -0.93,3.84 -2.33,5.18 -1.4,1.34 -3.55,2.01 -6.45,2.01 -2.7,0 -4.95,-0.62 -6.75,-1.86 -1.8,-1.24 -3.35,-3.1 -4.65,-5.57l-15 -28.64c-1.8,-3.41 -3.9,-5.68 -6.3,-6.81 -2.4,-1.14 -5.45,-1.7 -9.15,-1.7l-13.8 0 0 34.05c0,3.3 -0.82,5.88 -2.47,7.74 -1.65,1.86 -4.12,2.79 -7.42,2.79zm9.9 -59.75l23.09 0c6.7,0 11.8,-1.44 15.29,-4.33 3.5,-2.89 5.25,-7.22 5.25,-13 0,-5.68 -1.75,-9.96 -5.25,-12.85 -3.5,-2.89 -8.6,-4.34 -15.29,-4.34l-23.09 0 0 34.52z"/>
  <path class="fil1" d="M1767.32 1427.04c-3.4,0 -6,-0.93 -7.8,-2.79 -1.8,-1.86 -2.7,-4.54 -2.7,-8.05l0 -87.46c0,-3.51 0.9,-6.19 2.7,-8.05 1.8,-1.86 4.4,-2.79 7.8,-2.79l53.38 0c2.6,0 4.57,0.7 5.92,2.09 1.35,1.4 2.03,3.38 2.03,5.96 0,2.58 -0.68,4.59 -2.03,6.04 -1.35,1.44 -3.32,2.17 -5.92,2.17l-44.83 0 0 29.26 41.54 0c2.7,0 4.7,0.7 6,2.09 1.3,1.39 1.95,3.43 1.95,6.11 0,2.68 -0.65,4.72 -1.95,6.12 -1.3,1.39 -3.3,2.09 -6,2.09l-41.54 0 0 30.96 44.83 0c2.6,0 4.57,0.7 5.92,2.09 1.35,1.39 2.03,3.38 2.03,5.96 0,2.68 -0.68,4.72 -2.03,6.11 -1.35,1.39 -3.32,2.09 -5.92,2.09l-53.38 0z"/>
  <path class="fil1" d="M1448.78 1428.59c-10.71,0 -20.11,-2.32 -28.19,-6.97 -8.09,-4.64 -14.36,-11.17 -18.82,-19.58 -4.46,-8.41 -6.69,-18.29 -6.69,-29.64 0,-8.57 1.29,-16.28 3.86,-23.14 2.57,-6.86 6.19,-12.74 10.87,-17.65 4.67,-4.9 10.32,-8.67 16.93,-11.3 6.61,-2.63 13.96,-3.95 22.05,-3.95 10.81,0 20.24,2.3 28.27,6.89 8.03,4.59 14.25,11.07 18.66,19.43 4.41,8.36 6.62,18.21 6.62,29.57 0,8.57 -1.26,16.31 -3.78,23.22 -2.52,6.91 -6.12,12.85 -10.79,17.8 -4.67,4.95 -10.31,8.74 -16.93,11.38 -6.62,2.63 -13.97,3.95 -22.05,3.95zm0 -17.49c6.72,0 12.44,-1.55 17.16,-4.64 4.73,-3.1 8.35,-7.53 10.87,-13.31 2.52,-5.78 3.78,-12.69 3.78,-20.74 0,-12.18 -2.78,-21.65 -8.35,-28.41 -5.57,-6.76 -13.39,-10.14 -23.47,-10.14 -6.61,0 -12.31,1.52 -17.09,4.57 -4.78,3.04 -8.43,7.43 -10.95,13.16 -2.52,5.73 -3.78,12.67 -3.78,20.82 0,12.07 2.78,21.54 8.35,28.41 5.56,6.86 13.38,10.29 23.47,10.29z"/>
 </g>
</svg>
